<svg xmlns="http://www.w3.org/2000/svg" viewBox="0 0 940 460" font-family="ui-sans-serif, system-ui, -apple-system, Segoe UI, sans-serif" role="img" aria-label="Verification depth before vs after the #1669 stamp-lift fix">
<text x="470.0" y="26.0" font-size="15" text-anchor="middle" fill="#8b949e" font-weight="600">Exp 1 · Verification depth through the real binary — before vs after #1669</text>
<text x="470.0" y="45.0" font-size="12" text-anchor="middle" fill="#8b949e" font-weight="normal">90 of 124 tasks changed tier or verification (73%)  ·  causal pair = released pair -&gt; #1659 adds zero delta</text>
<text x="220.0" y="72.0" font-size="13" text-anchor="middle" fill="#8b949e" font-weight="600">Risk tier assigned (tasks)</text>
<rect x="135.5" y="85.0" width="12.0" height="12.0" rx="2" fill="#f0883e"/>
<text x="153.5" y="95.0" font-size="12" text-anchor="start" fill="#8b949e" font-weight="normal">high</text>
<rect x="189.5" y="85.0" width="12.0" height="12.0" rx="2" fill="#58a6ff"/>
<text x="207.5" y="95.0" font-size="12" text-anchor="start" fill="#8b949e" font-weight="normal">medium</text>
<rect x="257.5" y="85.0" width="12.0" height="12.0" rx="2" fill="#3fb950"/>
<text x="275.5" y="95.0" font-size="12" text-anchor="start" fill="#8b949e" font-weight="normal">low</text>
<line x1="70.0" y1="400.0" x2="70.0" y2="112.0" stroke="#8b949e" stroke-width="1.2"/>
<line x1="66.0" y1="400.0" x2="70.0" y2="400.0" stroke="#8b949e" stroke-width="1.0"/>
<text x="62.0" y="404.0" font-size="11" text-anchor="end" fill="#8b949e" font-weight="normal">0</text>
<line x1="66.0" y1="328.0" x2="70.0" y2="328.0" stroke="#8b949e" stroke-width="1.0"/>
<text x="62.0" y="332.0" font-size="11" text-anchor="end" fill="#8b949e" font-weight="normal">31</text>
<line x1="66.0" y1="256.0" x2="70.0" y2="256.0" stroke="#8b949e" stroke-width="1.0"/>
<text x="62.0" y="260.0" font-size="11" text-anchor="end" fill="#8b949e" font-weight="normal">62</text>
<line x1="66.0" y1="184.0" x2="70.0" y2="184.0" stroke="#8b949e" stroke-width="1.0"/>
<text x="62.0" y="188.0" font-size="11" text-anchor="end" fill="#8b949e" font-weight="normal">93</text>
<line x1="66.0" y1="112.0" x2="70.0" y2="112.0" stroke="#8b949e" stroke-width="1.0"/>
<text x="62.0" y="116.0" font-size="11" text-anchor="end" fill="#8b949e" font-weight="normal">124</text>
<text x="28.0" y="256.0" font-size="12" text-anchor="middle" fill="#8b949e" transform="rotate(-90 28.0 256.0)">tasks</text>
<rect x="125.0" y="112.0" width="90.0" height="288.0" rx="2" fill="#58a6ff"/>
<text x="170.0" y="260.0" font-size="11" text-anchor="middle" fill="#0d1117" font-weight="normal">medium 124</text>
<text x="170.0" y="418.0" font-size="11" text-anchor="middle" fill="#8b949e" font-weight="normal">before</text>
<text x="170.0" y="433.0" font-size="11" text-anchor="middle" fill="#8b949e" font-weight="normal">(heuristic)</text>
<rect x="275.0" y="367.5" width="90.0" height="32.5" rx="2" fill="#3fb950"/>
<text x="320.0" y="387.7" font-size="11" text-anchor="middle" fill="#0d1117" font-weight="normal">low 14</text>
<rect x="275.0" y="225.8" width="90.0" height="141.7" rx="2" fill="#58a6ff"/>
<text x="320.0" y="300.6" font-size="11" text-anchor="middle" fill="#0d1117" font-weight="normal">medium 61</text>
<rect x="275.0" y="112.0" width="90.0" height="113.8" rx="2" fill="#f0883e"/>
<text x="320.0" y="172.9" font-size="11" text-anchor="middle" fill="#0d1117" font-weight="normal">high 49</text>
<text x="320.0" y="418.0" font-size="11" text-anchor="middle" fill="#8b949e" font-weight="normal">after</text>
<text x="320.0" y="433.0" font-size="11" text-anchor="middle" fill="#8b949e" font-weight="normal">(stamp-lift)</text>
<text x="735.0" y="72.0" font-size="13" text-anchor="middle" fill="#8b949e" font-weight="600">Verification checks applied (tasks)</text>
<rect x="583.0" y="85.0" width="12.0" height="12.0" rx="2" fill="#58a6ff"/>
<text x="601.0" y="95.0" font-size="12" text-anchor="start" fill="#8b949e" font-weight="normal">before (heuristic)</text>
<rect x="735.0" y="85.0" width="12.0" height="12.0" rx="2" fill="#f0883e"/>
<text x="753.0" y="95.0" font-size="12" text-anchor="start" fill="#8b949e" font-weight="normal">after (stamp-lift)</text>
<line x1="560.0" y1="400.0" x2="560.0" y2="112.0" stroke="#8b949e" stroke-width="1.2"/>
<line x1="556.0" y1="400.0" x2="560.0" y2="400.0" stroke="#8b949e" stroke-width="1.0"/>
<text x="552.0" y="404.0" font-size="11" text-anchor="end" fill="#8b949e" font-weight="normal">0</text>
<line x1="556.0" y1="328.0" x2="560.0" y2="328.0" stroke="#8b949e" stroke-width="1.0"/>
<text x="552.0" y="332.0" font-size="11" text-anchor="end" fill="#8b949e" font-weight="normal">31</text>
<line x1="556.0" y1="256.0" x2="560.0" y2="256.0" stroke="#8b949e" stroke-width="1.0"/>
<text x="552.0" y="260.0" font-size="11" text-anchor="end" fill="#8b949e" font-weight="normal">62</text>
<line x1="556.0" y1="184.0" x2="560.0" y2="184.0" stroke="#8b949e" stroke-width="1.0"/>
<text x="552.0" y="188.0" font-size="11" text-anchor="end" fill="#8b949e" font-weight="normal">93</text>
<line x1="556.0" y1="112.0" x2="560.0" y2="112.0" stroke="#8b949e" stroke-width="1.0"/>
<text x="552.0" y="116.0" font-size="11" text-anchor="end" fill="#8b949e" font-weight="normal">124</text>
<rect x="580.0" y="112.0" width="26.0" height="288.0" rx="2" fill="#58a6ff"/>
<text x="593.0" y="108.0" font-size="10" text-anchor="middle" fill="#8b949e" font-weight="normal">124</text>
<rect x="609.0" y="112.0" width="26.0" height="288.0" rx="2" fill="#f0883e"/>
<text x="622.0" y="108.0" font-size="10" text-anchor="middle" fill="#8b949e" font-weight="normal">124</text>
<text x="607.5" y="416.0" font-size="10" text-anchor="middle" fill="#8b949e" font-weight="normal">static</text>
<rect x="646.0" y="112.0" width="26.0" height="288.0" rx="2" fill="#58a6ff"/>
<text x="659.0" y="108.0" font-size="10" text-anchor="middle" fill="#8b949e" font-weight="normal">124</text>
<rect x="675.0" y="144.5" width="26.0" height="255.5" rx="2" fill="#f0883e"/>
<text x="688.0" y="140.5" font-size="10" text-anchor="middle" fill="#8b949e" font-weight="normal">110</text>
<text x="673.5" y="416.0" font-size="10" text-anchor="middle" fill="#8b949e" font-weight="normal">test-adeq</text>
<rect x="712.0" y="400.0" width="26.0" height="0.0" rx="2" fill="#58a6ff"/>
<text x="725.0" y="396.0" font-size="10" text-anchor="middle" fill="#8b949e" font-weight="normal">0</text>
<rect x="741.0" y="286.2" width="26.0" height="113.8" rx="2" fill="#f0883e"/>
<text x="754.0" y="282.2" font-size="10" text-anchor="middle" fill="#8b949e" font-weight="normal">49</text>
<text x="739.5" y="416.0" font-size="10" text-anchor="middle" fill="#8b949e" font-weight="normal">integ-suite</text>
<rect x="778.0" y="400.0" width="26.0" height="0.0" rx="2" fill="#58a6ff"/>
<text x="791.0" y="396.0" font-size="10" text-anchor="middle" fill="#8b949e" font-weight="normal">0</text>
<rect x="807.0" y="246.7" width="26.0" height="153.3" rx="2" fill="#f0883e"/>
<text x="820.0" y="242.7" font-size="10" text-anchor="middle" fill="#8b949e" font-weight="normal">66</text>
<text x="805.5" y="416.0" font-size="10" text-anchor="middle" fill="#8b949e" font-weight="normal">contract</text>
<rect x="844.0" y="400.0" width="26.0" height="0.0" rx="2" fill="#58a6ff"/>
<text x="857.0" y="396.0" font-size="10" text-anchor="middle" fill="#8b949e" font-weight="normal">0</text>
<rect x="873.0" y="246.7" width="26.0" height="153.3" rx="2" fill="#f0883e"/>
<text x="886.0" y="242.7" font-size="10" text-anchor="middle" fill="#8b949e" font-weight="normal">66</text>
<text x="871.5" y="416.0" font-size="10" text-anchor="middle" fill="#8b949e" font-weight="normal">mock-bnd</text>
</svg>
